# Blender v2.80 (sub 75) OBJ File: ''
# www.blender.org
mtllib wagon.mtl
o SM_Wagon.mo_SM_Wagon.md
v 1.404458 0.374137 0.878494
v 1.404458 0.374137 0.794215
v 1.344319 0.315094 0.794215
v 1.344319 0.315093 0.878494
v 1.703897 0.074698 0.878493
v 1.643758 0.015655 0.878493
v 1.703897 0.074698 0.794215
v 1.643758 0.015655 0.794215
v -0.263777 1.725594 0.412770
v -0.263777 1.725594 0.160438
v -0.263777 1.370377 0.412770
v -0.263777 1.370377 0.160438
v -0.011445 1.725594 0.160438
v -0.011445 1.370377 0.160438
v -0.011445 1.725594 0.412770
v -0.011445 1.370377 0.412770
v -0.840849 0.245804 0.905969
v -0.840849 1.375126 0.905969
v -0.840849 1.375126 -0.335845
v -0.840849 0.245805 -0.335845
v 1.410973 1.375126 -0.335845
v 1.410973 0.245805 -0.335845
v 1.410973 1.375126 0.905969
v 1.410973 0.245804 0.905969
v 1.404458 0.374137 -0.224494
v 1.404458 0.374137 -0.308772
v 1.344319 0.315094 -0.308772
v 1.344319 0.315094 -0.224494
v 1.703897 0.074698 -0.224494
v 1.643758 0.015655 -0.224494
v 1.703897 0.074698 -0.308772
v 1.643758 0.015655 -0.308772
v 0.642793 0.491722 1.001362
v 1.133034 0.491722 0.915741
v 0.642793 0.491722 0.915741
v 1.133034 0.491722 1.001362
v 1.133034 0.001482 1.001362
v 0.642793 0.001482 1.001362
v 1.133034 0.001482 0.915741
v 0.642793 0.001482 0.915741
v -0.554877 0.491722 1.001362
v -0.064636 0.491722 0.915741
v -0.554877 0.491722 0.915741
v -0.064636 0.491722 1.001362
v -0.064636 0.001482 1.001362
v -0.554877 0.001482 1.001362
v -0.064636 0.001482 0.915741
v -0.554877 0.001482 0.915741
v 0.642793 0.491723 -0.431238
v 0.642793 0.491723 -0.345617
v 1.133034 0.491723 -0.345617
v 1.133034 0.491723 -0.431238
v 0.642793 0.001482 -0.345617
v 0.642793 0.001482 -0.431238
v 1.133034 0.001482 -0.345617
v 1.133034 0.001482 -0.431238
v -0.554877 0.491723 -0.431238
v -0.554877 0.491723 -0.345617
v -0.064636 0.491723 -0.345617
v -0.064636 0.491723 -0.431238
v -0.554877 0.001482 -0.431238
v -0.064636 0.001482 -0.345617
v -0.554877 0.001482 -0.345617
v -0.064636 0.001482 -0.431238
vt 0.645996 0.646240
vt 0.645996 0.354004
vt 0.353760 0.354004
vt 0.353760 0.646240
vt 0.058868 0.832153
vt 0.000031 0.832031
vt 0.058838 0.851562
vt 0.000031 0.851562
vt 0.158569 0.863525
vt 0.139526 0.863525
vt 0.158569 0.882690
vt 0.139526 0.882690
vt 0.081726 0.832153
vt 0.081726 0.851562
vt 0.140625 0.832031
vt 0.140625 0.851562
vt -0.000031 0.863281
vt 0.058868 0.863281
vt 0.058868 0.851685
vt 0.081726 0.832031
vt 0.081726 0.812622
vt 0.140625 0.812500
vt 0.687500 0.921875
vt 0.687500 0.882812
vt 0.750000 0.921875
vt 0.750000 0.882812
vt 0.640625 0.882812
vt 0.640625 0.820312
vt 0.687500 0.820312
vt 0.578125 0.882812
vt 0.640625 0.921875
vt 0.578125 0.921875
vt 0.640625 0.984375
vt 0.687500 0.984375
vt 0.771973 0.772461
vt 0.544922 0.545410
vt 0.771973 0.545410
vt 0.544922 0.772461
vt 0.687500 0.921875
vt 0.640625 0.882812
vt 0.687500 0.882812
vt 0.640625 0.921875
vt 0.765625 0.625000
vt 0.765625 0.812500
vt 0.578125 0.812500
vt 0.578125 0.625000
vt 0.574219 0.625000
vt 0.574219 0.812500
vt 0.187500 0.812500
vt 0.187500 0.625000
vt -0.000031 0.812500
vt -0.000031 0.625000
vt 0.574219 0.812500
vt 0.187500 0.812500
vt 0.574219 0.625000
vt 0.187500 0.625000
vt 0.187500 0.437500
vt 0.574219 0.441406
vt 0.574219 0.999969
vt 0.187500 0.999969
vt 0.645996 0.646240
vt 0.645996 0.354004
vt 0.353760 0.354004
vt 0.353760 0.646240
vt 0.058868 0.832153
vt 0.000031 0.832031
vt 0.058838 0.851562
vt 0.000031 0.851562
vt 0.158569 0.863525
vt 0.139526 0.863525
vt 0.158569 0.882690
vt 0.139526 0.882690
vt 0.081726 0.832153
vt 0.081726 0.851562
vt 0.140625 0.832031
vt 0.140625 0.851562
vt -0.000031 0.863281
vt 0.058868 0.863281
vt 0.058868 0.851685
vt 0.081726 0.832031
vt 0.081726 0.812622
vt 0.140625 0.812500
vt 0.187500 0.906250
vt 0.164062 0.999969
vt 0.164062 0.906311
vt 0.187500 0.999969
vt 0.187500 0.816406
vt 0.187500 0.851562
vt 0.164062 0.816406
vt 0.164062 0.851562
vt 0.187500 0.828125
vt 0.164062 0.828125
vt 0.187500 0.933594
vt 0.164062 0.933594
vt 0.164062 0.828125
vt 0.187500 0.828125
vt 0.164062 0.933594
vt 0.187500 0.933594
vt 0.093628 0.906311
vt 0.000087 0.906433
vt 0.093689 0.999827
vt 0.000092 0.999882
vt 0.000062 0.999910
vt 0.093628 0.906311
vt 0.000044 0.906372
vt 0.093689 0.999903
vt 0.187500 0.906250
vt 0.164062 0.999969
vt 0.164062 0.906311
vt 0.187500 0.999969
vt 0.187500 0.816406
vt 0.187500 0.851562
vt 0.164062 0.816406
vt 0.164062 0.851562
vt 0.187500 0.828125
vt 0.164062 0.828125
vt 0.187500 0.933594
vt 0.164062 0.933594
vt 0.164062 0.828125
vt 0.187500 0.828125
vt 0.164062 0.933594
vt 0.187500 0.933594
vt 0.093628 0.906311
vt 0.000087 0.906433
vt 0.093689 0.999827
vt 0.000092 0.999882
vt 0.000062 0.999910
vt 0.093628 0.906311
vt 0.000044 0.906372
vt 0.093689 0.999903
vt 0.187500 0.906250
vt 0.164062 0.906311
vt 0.164062 0.999969
vt 0.187500 0.999969
vt 0.164062 0.851562
vt 0.187500 0.851562
vt 0.164062 0.816406
vt 0.187500 0.816406
vt 0.164062 0.828125
vt 0.187500 0.828125
vt 0.187500 0.933594
vt 0.164062 0.933594
vt 0.187500 0.828125
vt 0.164062 0.828125
vt 0.164062 0.933594
vt 0.187500 0.933594
vt 0.093689 0.999827
vt 0.000087 0.906433
vt 0.093628 0.906311
vt 0.000092 0.999882
vt 0.000044 0.906372
vt 0.093628 0.906311
vt 0.000062 0.999910
vt 0.093689 0.999903
vt 0.187500 0.906250
vt 0.164062 0.906311
vt 0.164062 0.999969
vt 0.187500 0.999969
vt 0.187500 0.851562
vt 0.164062 0.816406
vt 0.164062 0.851562
vt 0.187500 0.816406
vt 0.164062 0.828125
vt 0.187500 0.828125
vt 0.187500 0.933594
vt 0.164062 0.933594
vt 0.187500 0.828125
vt 0.164062 0.828125
vt 0.164062 0.933594
vt 0.187500 0.933594
vt 0.093689 0.999827
vt 0.000087 0.906433
vt 0.093628 0.906311
vt 0.000092 0.999882
vt 0.000044 0.906372
vt 0.093628 0.906311
vt 0.000062 0.999910
vt 0.093689 0.999903
vn -0.7006 0.7136 0.0000
vn 0.0000 -0.0000 1.0000
vn 0.7006 -0.7136 -0.0000
vn 0.0000 0.0000 -1.0000
vn -0.7071 -0.7071 -0.0000
vn 0.7071 0.7071 0.0000
vn -1.0000 -0.0000 0.0000
vn 1.0000 0.0000 0.0000
vn 0.0000 -1.0000 -0.0000
vn 0.0000 1.0000 0.0000
usemtl M_WagonBig_Inst.001
s 1
f 1/1/1 2/2/1 3/3/1
f 1/1/1 3/3/1 4/4/1
f 5/5/2 1/6/2 6/7/2
f 4/8/2 6/7/2 1/6/2
f 5/9/3 6/10/3 7/11/3
f 8/12/3 7/11/3 6/10/3
f 7/13/4 8/14/4 2/15/4
f 3/16/4 2/15/4 8/14/4
f 4/8/5 3/17/5 8/18/5
f 8/18/5 6/19/5 4/8/5
f 7/20/6 2/15/6 5/21/6
f 1/22/6 5/21/6 2/15/6
f 9/23/7 10/24/7 11/25/7
f 12/26/7 11/25/7 10/24/7
f 13/27/4 14/28/4 12/29/4
f 13/27/4 12/29/4 10/24/4
f 14/30/8 15/31/8 16/32/8
f 13/27/8 15/31/8 14/30/8
f 15/31/2 9/23/2 16/33/2
f 11/34/2 16/33/2 9/23/2
f 12/35/9 16/36/9 11/37/9
f 14/38/9 16/36/9 12/35/9
f 13/39/10 9/40/10 15/41/10
f 10/42/10 9/40/10 13/39/10
f 17/43/7 18/44/7 19/45/7
f 20/46/7 17/43/7 19/45/7
f 20/47/4 19/48/4 21/49/4
f 21/49/4 22/50/4 20/47/4
f 22/50/8 23/51/8 24/52/8
f 21/49/8 23/51/8 22/50/8
f 23/53/2 18/54/2 24/55/2
f 17/56/2 24/55/2 18/54/2
f 20/57/9 24/55/9 17/56/9
f 22/58/9 24/55/9 20/57/9
f 21/49/10 18/59/10 23/60/10
f 19/48/10 18/59/10 21/49/10
f 25/61/1 26/62/1 27/63/1
f 25/61/1 27/63/1 28/64/1
f 29/65/2 25/66/2 30/67/2
f 28/68/2 30/67/2 25/66/2
f 29/69/3 30/70/3 31/71/3
f 32/72/3 31/71/3 30/70/3
f 31/73/4 32/74/4 26/75/4
f 27/76/4 26/75/4 32/74/4
f 28/68/5 27/77/5 32/78/5
f 32/78/5 30/79/5 28/68/5
f 31/80/6 26/75/6 29/81/6
f 25/82/6 29/81/6 26/75/6
f 33/83/10 34/84/10 35/85/10
f 36/86/10 34/84/10 33/83/10
f 37/87/9 38/88/9 39/89/9
f 40/90/9 39/89/9 38/88/9
f 37/91/8 39/92/8 36/93/8
f 34/94/8 36/93/8 39/92/8
f 40/95/7 38/96/7 35/97/7
f 33/98/7 35/97/7 38/96/7
f 39/99/4 40/100/4 34/101/4
f 35/102/4 34/101/4 40/100/4
f 36/103/2 38/104/2 37/105/2
f 33/106/2 38/104/2 36/103/2
f 41/107/10 42/108/10 43/109/10
f 44/110/10 42/108/10 41/107/10
f 45/111/9 46/112/9 47/113/9
f 48/114/9 47/113/9 46/112/9
f 45/115/8 47/116/8 44/117/8
f 42/118/8 44/117/8 47/116/8
f 48/119/7 46/120/7 43/121/7
f 41/122/7 43/121/7 46/120/7
f 47/123/4 48/124/4 42/125/4
f 43/126/4 42/125/4 48/124/4
f 44/127/2 46/128/2 45/129/2
f 41/130/2 46/128/2 44/127/2
f 49/131/10 50/132/10 51/133/10
f 51/133/10 52/134/10 49/131/10
f 53/135/9 54/136/9 55/137/9
f 56/138/9 55/137/9 54/136/9
f 55/139/8 56/140/8 52/141/8
f 51/142/8 55/139/8 52/141/8
f 54/143/7 53/144/7 50/145/7
f 49/146/7 54/143/7 50/145/7
f 51/147/2 53/148/2 55/149/2
f 50/150/2 53/148/2 51/147/2
f 56/151/4 54/152/4 52/153/4
f 49/154/4 52/153/4 54/152/4
f 57/155/10 58/156/10 59/157/10
f 59/157/10 60/158/10 57/155/10
f 61/159/9 62/160/9 63/161/9
f 64/162/9 62/160/9 61/159/9
f 62/163/8 64/164/8 60/165/8
f 59/166/8 62/163/8 60/165/8
f 61/167/7 63/168/7 58/169/7
f 57/170/7 61/167/7 58/169/7
f 59/171/2 63/172/2 62/173/2
f 58/174/2 63/172/2 59/171/2
f 64/175/4 61/176/4 60/177/4
f 57/178/4 60/177/4 61/176/4
